<svg xmlns="http://www.w3.org/2000/svg" xmlns:xlink="http://www.w3.org/1999/xlink" width="500" zoomAndPan="magnify" viewBox="0 0 375 374.999991" height="500" preserveAspectRatio="xMidYMid meet" version="1.0"><defs><clipPath id="87b3096070"><path d="M 213.949219 214.125 L 220.785156 214.125 L 220.785156 225.960938 L 213.949219 225.960938 Z M 213.949219 214.125 " clip-rule="nonzero"/></clipPath><clipPath id="152dd1dbcb"><path d="M 152.734375 148.722656 L 222.265625 148.722656 L 222.265625 185.558594 L 152.734375 185.558594 Z M 152.734375 148.722656 " clip-rule="nonzero"/></clipPath></defs><rect x="-37.5" width="450" fill="#ffffff" y="-37.499999" height="449.999989" fill-opacity="1"/><rect x="-37.5" width="450" fill="#ffffff" y="-37.499999" height="449.999989" fill-opacity="1"/><g clip-path="url(#87b3096070)"><path fill="#07af93" d="M 214.339844 222.914062 C 215.257812 225.324219 217.382812 225.925781 217.382812 225.925781 C 214.582031 225.804688 214.339844 222.914062 214.339844 222.914062 Z M 213.992188 222.878906 C 213.992188 224.753906 215.511719 226.269531 217.382812 226.269531 C 219.253906 226.269531 220.773438 224.753906 220.773438 222.878906 C 220.773438 220.597656 218.125 217.722656 217.382812 214.175781 C 216.640625 217.722656 213.992188 220.597656 213.992188 222.878906 " fill-opacity="1" fill-rule="nonzero"/></g><path fill="#07ab90" d="M 215.101562 210.351562 L 215.101562 210.625 L 219.890625 210.625 L 219.890625 209.746094 C 219.890625 207.960938 219.179688 206.246094 217.914062 204.980469 C 216.652344 203.71875 214.9375 203.007812 213.148438 203.007812 L 212.507812 203.007812 C 211.230469 203.007812 210.195312 201.972656 210.195312 200.695312 L 210.195312 199.644531 L 210.710938 199.644531 C 211.019531 199.644531 211.269531 199.390625 211.269531 199.082031 C 211.269531 198.773438 211.019531 198.523438 210.710938 198.523438 L 208.53125 198.523438 L 210.160156 198.402344 C 210.21875 198.3125 210.257812 198.207031 210.257812 198.09375 C 210.257812 197.785156 210.007812 197.53125 209.695312 197.53125 L 208.15625 197.53125 L 208.15625 195.15625 C 208.40625 194.960938 208.601562 194.695312 208.710938 194.386719 L 211.023438 194.738281 C 211.597656 194.824219 212.109375 194.378906 212.109375 193.800781 C 212.109375 193.222656 211.597656 192.78125 211.023438 192.867188 L 208.695312 193.21875 C 208.453125 192.589844 207.84375 192.144531 207.125 192.144531 C 206.40625 192.144531 205.796875 192.597656 205.554688 193.230469 L 203.152344 192.867188 C 202.578125 192.78125 202.066406 193.222656 202.066406 193.800781 C 202.066406 194.378906 202.578125 194.824219 203.152344 194.738281 L 205.539062 194.375 C 205.648438 194.6875 205.84375 194.957031 206.097656 195.15625 L 206.097656 197.53125 L 204.558594 197.53125 C 204.246094 197.53125 203.996094 197.785156 203.996094 198.09375 C 203.996094 198.195312 204.027344 198.289062 204.074219 198.367188 L 206.089844 198.523438 L 203.605469 198.523438 C 203.296875 198.523438 203.046875 198.773438 203.046875 199.082031 C 203.046875 199.390625 203.296875 199.644531 203.605469 199.644531 L 204.167969 199.644531 L 204.167969 200.929688 C 204.167969 202.074219 203.238281 203.007812 202.089844 203.007812 L 198.902344 203.007812 L 198.902344 201.125 L 195.609375 201.125 L 195.609375 202.738281 L 175.457031 202.738281 C 170.679688 202.738281 166.792969 198.851562 166.792969 194.074219 L 166.792969 189.503906 L 169.410156 189.503906 L 169.410156 188.164062 L 158.394531 188.164062 L 158.394531 189.503906 L 160.746094 189.503906 L 160.746094 194.074219 C 160.746094 202.183594 167.347656 208.785156 175.457031 208.785156 L 195.609375 208.785156 L 195.609375 210.195312 L 198.902344 210.195312 L 198.902344 208.101562 L 202.34375 208.101562 C 204.726562 208.054688 205.101562 209.921875 207.203125 209.921875 C 208.105469 209.921875 208.765625 209.582031 209.226562 209.195312 C 210.113281 208.449219 211.257812 208.078125 212.414062 208.078125 L 212.828125 208.078125 C 213.429688 208.078125 214.007812 208.316406 214.433594 208.742188 C 214.863281 209.167969 215.101562 209.746094 215.101562 210.351562 " fill-opacity="1" fill-rule="nonzero"/><path fill="#07ab90" d="M 220.433594 210.996094 L 214.328125 210.996094 C 214.019531 210.996094 213.769531 211.246094 213.769531 211.558594 C 213.769531 211.867188 214.019531 212.117188 214.328125 212.117188 L 220.433594 212.117188 C 220.746094 212.117188 220.996094 211.867188 220.996094 211.558594 C 220.996094 211.246094 220.746094 210.996094 220.433594 210.996094 " fill-opacity="1" fill-rule="nonzero"/><path fill="#07af93" d="M 166.792969 161.367188 L 160.746094 161.367188 L 160.746094 170.28125 L 166.792969 165.125 L 166.792969 161.367188 " fill-opacity="1" fill-rule="nonzero"/><g clip-path="url(#152dd1dbcb)"><path fill="#07af93" d="M 221.203125 177.457031 L 187.5 148.722656 L 153.796875 177.457031 C 152.527344 178.542969 152.375 180.449219 153.457031 181.71875 C 154.542969 182.992188 156.449219 183.140625 157.71875 182.058594 L 160.746094 179.480469 L 160.746094 184.199219 L 158.394531 184.199219 L 158.394531 185.542969 L 169.410156 185.542969 L 169.410156 184.199219 L 166.792969 184.199219 L 166.792969 174.324219 L 187.5 156.667969 L 217.28125 182.058594 C 218.550781 183.140625 220.460938 182.992188 221.542969 181.71875 C 222.625 180.449219 222.476562 178.542969 221.203125 177.457031 " fill-opacity="1" fill-rule="nonzero"/></g><path fill="#07ab90" d="M 186.75 174.539062 L 186.75 169.28125 L 181.492188 169.28125 L 181.492188 174.539062 L 186.75 174.539062 " fill-opacity="1" fill-rule="nonzero"/><path fill="#07ab90" d="M 188.253906 174.539062 L 193.511719 174.539062 L 193.511719 169.28125 L 188.253906 169.28125 L 188.253906 174.539062 " fill-opacity="1" fill-rule="nonzero"/><path fill="#07ab90" d="M 188.253906 175.910156 L 188.253906 181.167969 L 193.511719 181.167969 L 193.511719 175.910156 L 188.253906 175.910156 " fill-opacity="1" fill-rule="nonzero"/><path fill="#07ab90" d="M 186.75 175.910156 L 181.492188 175.910156 L 181.492188 181.167969 L 186.75 181.167969 L 186.75 175.910156 " fill-opacity="1" fill-rule="nonzero"/></svg>