<svg xmlns="http://www.w3.org/2000/svg" xmlns:xlink="http://www.w3.org/1999/xlink" width="500" zoomAndPan="magnify" viewBox="0 0 375 374.999991" height="500" preserveAspectRatio="xMidYMid meet" version="1.0"><defs><clipPath id="1cdb4a1cc0"><path d="M 257.777344 258.261719 L 275.949219 258.261719 L 275.949219 290.535156 L 257.777344 290.535156 Z M 257.777344 258.261719 " clip-rule="nonzero"/></clipPath><clipPath id="a5ac593229"><path d="M 95.117188 84.464844 L 279.617188 84.464844 L 279.617188 182.351562 L 95.117188 182.351562 Z M 95.117188 84.464844 " clip-rule="nonzero"/></clipPath></defs><g clip-path="url(#1cdb4a1cc0)"><path fill="#07af93" d="M 258.820312 281.621094 C 261.261719 288.015625 266.90625 289.621094 266.90625 289.621094 C 259.460938 289.296875 258.820312 281.621094 258.820312 281.621094 Z M 257.898438 281.527344 C 257.898438 286.5 261.929688 290.535156 266.90625 290.535156 C 271.878906 290.535156 275.914062 286.5 275.914062 281.527344 C 275.914062 275.460938 268.875 267.824219 266.90625 258.394531 C 264.933594 267.824219 257.898438 275.460938 257.898438 281.527344 " fill-opacity="1" fill-rule="nonzero"/></g><path fill="#07ab90" d="M 260.84375 248.230469 L 260.84375 248.957031 L 273.570312 248.957031 L 273.570312 246.628906 C 273.570312 241.875 271.683594 237.320312 268.324219 233.960938 C 264.964844 230.601562 260.410156 228.714844 255.660156 228.714844 L 253.953125 228.714844 C 250.558594 228.714844 247.804688 225.964844 247.804688 222.570312 L 247.804688 219.777344 L 249.171875 219.777344 C 249.992188 219.777344 250.660156 219.109375 250.660156 218.285156 C 250.660156 217.464844 249.992188 216.796875 249.171875 216.796875 L 243.382812 216.796875 L 247.710938 216.476562 C 247.871094 216.242188 247.972656 215.964844 247.972656 215.660156 C 247.972656 214.835938 247.304688 214.167969 246.480469 214.167969 L 242.382812 214.167969 L 242.382812 207.851562 C 243.054688 207.332031 243.574219 206.625 243.863281 205.8125 L 250.011719 206.738281 C 251.527344 206.96875 252.894531 205.792969 252.894531 204.257812 C 252.894531 202.71875 251.527344 201.546875 250.011719 201.773438 L 243.820312 202.710938 C 243.171875 201.039062 241.554688 199.847656 239.652344 199.847656 C 237.742188 199.847656 236.113281 201.050781 235.476562 202.738281 L 229.085938 201.773438 C 227.566406 201.546875 226.203125 202.71875 226.203125 204.257812 C 226.203125 205.792969 227.566406 206.96875 229.085938 206.738281 L 235.433594 205.78125 C 235.71875 206.609375 236.242188 207.328125 236.921875 207.851562 L 236.921875 214.167969 L 232.824219 214.167969 C 232 214.167969 231.335938 214.835938 231.335938 215.660156 C 231.335938 215.929688 231.414062 216.175781 231.539062 216.390625 L 236.894531 216.796875 L 230.300781 216.796875 C 229.476562 216.796875 228.808594 217.464844 228.808594 218.285156 C 228.808594 219.109375 229.476562 219.777344 230.300781 219.777344 L 231.789062 219.777344 L 231.789062 223.191406 C 231.789062 226.242188 229.316406 228.714844 226.261719 228.714844 L 217.792969 228.714844 L 217.792969 223.71875 L 209.046875 223.71875 L 209.046875 228.003906 L 155.496094 228.003906 C 142.796875 228.003906 132.46875 217.671875 132.46875 204.976562 L 132.46875 192.839844 L 139.429688 192.839844 L 139.429688 189.269531 L 110.15625 189.269531 L 110.15625 192.839844 L 116.402344 192.839844 L 116.402344 204.976562 C 116.402344 226.53125 133.941406 244.066406 155.496094 244.066406 L 209.046875 244.066406 L 209.046875 247.816406 L 217.792969 247.816406 L 217.792969 242.25 L 226.945312 242.25 C 233.277344 242.125 234.273438 247.09375 239.859375 247.09375 C 242.253906 247.09375 244.007812 246.191406 245.234375 245.164062 C 247.59375 243.183594 250.625 242.1875 253.703125 242.1875 L 254.800781 242.1875 C 256.402344 242.1875 257.941406 242.824219 259.074219 243.957031 C 260.207031 245.089844 260.84375 246.625 260.84375 248.230469 " fill-opacity="1" fill-rule="nonzero"/><path fill="#07ab90" d="M 275.019531 249.949219 L 258.792969 249.949219 C 257.972656 249.949219 257.304688 250.613281 257.304688 251.4375 C 257.304688 252.261719 257.972656 252.929688 258.792969 252.929688 L 275.019531 252.929688 C 275.839844 252.929688 276.507812 252.261719 276.507812 251.4375 C 276.507812 250.613281 275.839844 249.949219 275.019531 249.949219 " fill-opacity="1" fill-rule="nonzero"/><path fill="#07af93" d="M 132.46875 118.0625 L 116.402344 118.0625 L 116.402344 141.75 L 132.46875 128.050781 L 132.46875 118.0625 " fill-opacity="1" fill-rule="nonzero"/><g clip-path="url(#a5ac593229)"><path fill="#07af93" d="M 277.0625 160.824219 L 187.5 84.460938 L 97.9375 160.824219 C 94.5625 163.703125 94.160156 168.773438 97.039062 172.148438 C 99.917969 175.527344 104.988281 175.929688 108.363281 173.050781 L 116.402344 166.191406 L 116.402344 178.738281 L 110.15625 178.738281 L 110.15625 182.308594 L 139.429688 182.308594 L 139.429688 178.738281 L 132.46875 178.738281 L 132.46875 152.496094 L 187.5 105.574219 L 266.640625 173.050781 C 270.015625 175.929688 275.085938 175.527344 277.960938 172.148438 C 280.839844 168.773438 280.4375 163.703125 277.0625 160.824219 " fill-opacity="1" fill-rule="nonzero"/></g><path fill="#07ab90" d="M 185.5 153.070312 L 185.5 139.097656 L 171.527344 139.097656 L 171.527344 153.070312 L 185.5 153.070312 " fill-opacity="1" fill-rule="nonzero"/><path fill="#07ab90" d="M 189.5 153.070312 L 203.472656 153.070312 L 203.472656 139.097656 L 189.5 139.097656 L 189.5 153.070312 " fill-opacity="1" fill-rule="nonzero"/><path fill="#07ab90" d="M 189.5 156.707031 L 189.5 170.679688 L 203.472656 170.679688 L 203.472656 156.707031 L 189.5 156.707031 " fill-opacity="1" fill-rule="nonzero"/><path fill="#07ab90" d="M 185.5 156.707031 L 171.527344 156.707031 L 171.527344 170.679688 L 185.5 170.679688 L 185.5 156.707031 " fill-opacity="1" fill-rule="nonzero"/></svg>