<svg xmlns="http://www.w3.org/2000/svg" xmlns:xlink="http://www.w3.org/1999/xlink" width="500" zoomAndPan="magnify" viewBox="0 0 375 374.999991" height="500" preserveAspectRatio="xMidYMid meet" version="1.0"><defs><clipPath id="75e7321bfe"><path d="M 313.664062 314.53125 L 346.285156 314.53125 L 346.285156 372.210938 L 313.664062 372.210938 Z M 313.664062 314.53125 " clip-rule="nonzero"/></clipPath><clipPath id="ee60ff126f"><path d="M 21.660156 2.53125 L 353.160156 2.53125 L 353.160156 178.261719 L 21.660156 178.261719 Z M 21.660156 2.53125 " clip-rule="nonzero"/></clipPath></defs><g clip-path="url(#75e7321bfe)"><path fill="#07af93" d="M 315.535156 356.464844 C 319.917969 367.949219 330.050781 370.832031 330.050781 370.832031 C 316.6875 370.242188 315.535156 356.464844 315.535156 356.464844 Z M 313.878906 356.296875 C 313.878906 365.226562 321.121094 372.46875 330.050781 372.46875 C 338.980469 372.46875 346.222656 365.226562 346.222656 356.296875 C 346.222656 345.40625 333.585938 331.703125 330.050781 314.773438 C 326.511719 331.703125 313.878906 345.40625 313.878906 356.296875 " fill-opacity="1" fill-rule="nonzero"/></g><path fill="#07ab90" d="M 319.167969 296.523438 L 319.167969 297.824219 L 342.011719 297.824219 L 342.011719 293.648438 C 342.011719 285.117188 338.625 276.941406 332.59375 270.910156 C 326.566406 264.878906 318.386719 261.492188 309.859375 261.492188 L 306.796875 261.492188 C 300.703125 261.492188 295.761719 256.554688 295.761719 250.460938 L 295.761719 245.445312 L 298.214844 245.445312 C 299.691406 245.445312 300.890625 244.246094 300.890625 242.769531 C 300.890625 241.292969 299.691406 240.097656 298.214844 240.097656 L 287.820312 240.097656 L 295.59375 239.519531 C 295.878906 239.097656 296.058594 238.601562 296.058594 238.054688 C 296.058594 236.574219 294.859375 235.378906 293.386719 235.378906 L 286.03125 235.378906 L 286.03125 224.035156 C 287.234375 223.105469 288.164062 221.835938 288.683594 220.371094 L 299.722656 222.039062 C 302.445312 222.449219 304.902344 220.339844 304.902344 217.582031 C 304.902344 214.824219 302.445312 212.714844 299.722656 213.128906 L 288.605469 214.804688 C 287.445312 211.804688 284.539062 209.671875 281.125 209.671875 C 277.695312 209.671875 274.773438 211.828125 273.625 214.859375 L 262.160156 213.128906 C 259.429688 212.714844 256.980469 214.824219 256.980469 217.582031 C 256.980469 220.339844 259.429688 222.449219 262.160156 222.039062 L 273.550781 220.320312 C 274.066406 221.804688 275.003906 223.09375 276.222656 224.035156 L 276.222656 235.378906 L 268.867188 235.378906 C 267.390625 235.378906 266.191406 236.574219 266.191406 238.054688 C 266.191406 238.535156 266.335938 238.976562 266.5625 239.367188 L 276.175781 240.097656 L 264.335938 240.097656 C 262.859375 240.097656 261.660156 241.292969 261.660156 242.769531 C 261.660156 244.246094 262.859375 245.445312 264.335938 245.445312 L 267.007812 245.445312 L 267.007812 251.574219 C 267.007812 257.050781 262.566406 261.492188 257.089844 261.492188 L 241.882812 261.492188 L 241.882812 252.523438 L 226.183594 252.523438 L 226.183594 260.210938 L 130.050781 260.210938 C 107.253906 260.210938 88.710938 241.667969 88.710938 218.875 L 88.710938 197.085938 L 101.207031 197.085938 L 101.207031 190.675781 L 48.65625 190.675781 L 48.65625 197.085938 L 59.871094 197.085938 L 59.871094 218.875 C 59.871094 257.570312 91.355469 289.050781 130.050781 289.050781 L 226.183594 289.050781 L 226.183594 295.78125 L 241.882812 295.78125 L 241.882812 285.789062 L 258.316406 285.789062 C 269.683594 285.566406 271.464844 294.480469 281.5 294.480469 C 285.796875 294.480469 288.949219 292.863281 291.148438 291.015625 C 295.378906 287.460938 300.824219 285.675781 306.351562 285.675781 L 308.324219 285.675781 C 311.199219 285.675781 313.957031 286.820312 315.992188 288.855469 C 318.023438 290.886719 319.167969 293.644531 319.167969 296.523438 " fill-opacity="1" fill-rule="nonzero"/><path fill="#07ab90" d="M 344.613281 299.609375 L 315.488281 299.609375 C 314.011719 299.609375 312.8125 300.804688 312.8125 302.28125 C 312.8125 303.761719 314.011719 304.957031 315.488281 304.957031 L 344.613281 304.957031 C 346.089844 304.957031 347.289062 303.761719 347.289062 302.28125 C 347.289062 300.804688 346.089844 299.609375 344.613281 299.609375 " fill-opacity="1" fill-rule="nonzero"/><path fill="#07af93" d="M 88.710938 62.851562 L 59.871094 62.851562 L 59.871094 105.371094 L 88.710938 80.78125 L 88.710938 62.851562 " fill-opacity="1" fill-rule="nonzero"/><g clip-path="url(#ee60ff126f)"><path fill="#07af93" d="M 348.28125 139.617188 L 187.503906 2.53125 L 26.722656 139.617188 C 20.664062 144.785156 19.9375 153.882812 25.105469 159.945312 C 30.273438 166.003906 39.375 166.730469 45.4375 161.5625 L 59.871094 149.25 L 59.871094 171.769531 L 48.65625 171.769531 L 48.65625 178.179688 L 101.207031 178.179688 L 101.207031 171.769531 L 88.710938 171.769531 L 88.710938 124.664062 L 187.503906 40.429688 L 329.570312 161.5625 C 335.628906 166.730469 344.734375 166.003906 349.898438 159.945312 C 355.066406 153.882812 354.34375 144.785156 348.28125 139.617188 " fill-opacity="1" fill-rule="nonzero"/></g><path fill="#07ab90" d="M 183.914062 125.691406 L 183.914062 100.609375 L 158.828125 100.609375 L 158.828125 125.691406 L 183.914062 125.691406 " fill-opacity="1" fill-rule="nonzero"/><path fill="#07ab90" d="M 191.09375 125.691406 L 216.179688 125.691406 L 216.179688 100.609375 L 191.09375 100.609375 L 191.09375 125.691406 " fill-opacity="1" fill-rule="nonzero"/><path fill="#07ab90" d="M 191.09375 132.222656 L 191.09375 157.308594 L 216.179688 157.308594 L 216.179688 132.222656 L 191.09375 132.222656 " fill-opacity="1" fill-rule="nonzero"/><path fill="#07ab90" d="M 183.914062 132.222656 L 158.828125 132.222656 L 158.828125 157.308594 L 183.914062 157.308594 L 183.914062 132.222656 " fill-opacity="1" fill-rule="nonzero"/></svg>