<svg xmlns="http://www.w3.org/2000/svg" width="48" height="48" viewBox="0 0 24 24" fill="none" stroke="hsl(168, 42%, 40%)" stroke-width="2" stroke-linecap="round" stroke-linejoin="round">
  <path d="M7 16.3c2.2 0 4-1.83 4-4.05 0-1.16-.57-2.26-1.71-3.19S7.29 6.75 7 5.3c-.29 1.45-1.14 2.84-2.29 3.76S3 11.1 3 12.25c0 2.22 1.8 4.05 4 4.05z"/>
  <path d="M12.56 14.1c1.44 0 2.6-1.19 2.6-2.64 0-.76-.37-1.47-1.11-2.08S12.73 7.89 12.56 7c-.19.95-.74 1.85-1.49 2.46s-1.11 1.29-1.11 2.02c0 1.45 1.17 2.63 2.6 2.63z"/>
</svg>
