<svg xmlns="http://www.w3.org/2000/svg" xmlns:xlink="http://www.w3.org/1999/xlink" width="468" zoomAndPan="magnify" viewBox="0 0 351 50.249999" height="67" preserveAspectRatio="xMidYMid meet" version="1.0"><defs><g/><clipPath id="d9f3b863d3"><path d="M 2.582031 0 L 348.417969 0 L 348.417969 49.511719 L 2.582031 49.511719 Z M 2.582031 0 " clip-rule="nonzero"/></clipPath><clipPath id="2561c8a93a"><path d="M 41.585938 41.683594 L 45.941406 41.683594 L 45.941406 49.421875 L 41.585938 49.421875 Z M 41.585938 41.683594 " clip-rule="nonzero"/></clipPath><clipPath id="f5d556abd7"><path d="M 41 39 L 46.917969 39 L 46.917969 41 L 41 41 Z M 41 39 " clip-rule="nonzero"/></clipPath><clipPath id="cb60d927aa"><path d="M 2.582031 0.0078125 L 46.886719 0.0078125 L 46.886719 23.480469 L 2.582031 23.480469 Z M 2.582031 0.0078125 " clip-rule="nonzero"/></clipPath></defs><g clip-path="url(#d9f3b863d3)"><path fill="#ffffff" d="M 2.582031 0 L 348.417969 0 L 348.417969 49.511719 L 2.582031 49.511719 Z M 2.582031 0 " fill-opacity="1" fill-rule="nonzero"/></g><g clip-path="url(#2561c8a93a)"><path fill="#07af93" d="M 41.835938 47.285156 C 42.421875 48.820312 43.773438 49.203125 43.773438 49.203125 C 41.988281 49.125 41.835938 47.285156 41.835938 47.285156 Z M 41.613281 47.261719 C 41.613281 48.457031 42.582031 49.421875 43.773438 49.421875 C 44.96875 49.421875 45.933594 48.457031 45.933594 47.261719 C 45.933594 45.808594 44.246094 43.976562 43.773438 41.714844 C 43.300781 43.976562 41.613281 45.808594 41.613281 47.261719 " fill-opacity="1" fill-rule="nonzero"/></g><path fill="#07ab90" d="M 42.320312 39.277344 L 42.320312 39.453125 L 45.371094 39.453125 L 45.371094 38.894531 C 45.371094 37.753906 44.917969 36.664062 44.113281 35.855469 C 43.308594 35.050781 42.214844 34.597656 41.078125 34.597656 L 40.667969 34.597656 C 39.855469 34.597656 39.195312 33.941406 39.195312 33.125 L 39.195312 32.457031 L 39.523438 32.457031 C 39.71875 32.457031 39.878906 32.296875 39.878906 32.097656 C 39.878906 31.902344 39.71875 31.742188 39.523438 31.742188 L 38.132812 31.742188 L 39.171875 31.664062 C 39.210938 31.609375 39.234375 31.542969 39.234375 31.46875 C 39.234375 31.269531 39.074219 31.109375 38.875 31.109375 L 37.894531 31.109375 L 37.894531 29.597656 C 38.054688 29.472656 38.179688 29.300781 38.25 29.105469 L 39.722656 29.328125 C 40.085938 29.382812 40.414062 29.101562 40.414062 28.734375 C 40.414062 28.367188 40.085938 28.085938 39.722656 28.140625 L 38.238281 28.363281 C 38.082031 27.960938 37.695312 27.675781 37.238281 27.675781 C 36.78125 27.675781 36.390625 27.964844 36.238281 28.371094 L 34.707031 28.140625 C 34.339844 28.085938 34.015625 28.367188 34.015625 28.734375 C 34.015625 29.101562 34.339844 29.382812 34.707031 29.328125 L 36.226562 29.097656 C 36.296875 29.296875 36.421875 29.46875 36.585938 29.597656 L 36.585938 31.109375 L 35.601562 31.109375 C 35.402344 31.109375 35.246094 31.269531 35.246094 31.46875 C 35.246094 31.53125 35.261719 31.59375 35.292969 31.644531 L 36.578125 31.742188 L 34.996094 31.742188 C 34.800781 31.742188 34.640625 31.902344 34.640625 32.097656 C 34.640625 32.296875 34.800781 32.457031 34.996094 32.457031 L 35.351562 32.457031 L 35.351562 33.273438 C 35.351562 34.007812 34.761719 34.597656 34.027344 34.597656 L 31.996094 34.597656 L 31.996094 33.402344 L 29.898438 33.402344 L 29.898438 34.429688 L 17.058594 34.429688 C 14.015625 34.429688 11.539062 31.953125 11.539062 28.90625 L 11.539062 25.996094 L 13.207031 25.996094 L 13.207031 25.140625 L 6.1875 25.140625 L 6.1875 25.996094 L 7.683594 25.996094 L 7.683594 28.90625 C 7.683594 34.074219 11.890625 38.28125 17.058594 38.28125 L 29.898438 38.28125 L 29.898438 39.179688 L 31.996094 39.179688 L 31.996094 37.84375 L 34.191406 37.84375 C 35.710938 37.816406 35.949219 39.003906 37.289062 39.003906 C 37.863281 39.003906 38.285156 38.789062 38.578125 38.542969 C 39.144531 38.066406 39.871094 37.828125 40.609375 37.828125 L 40.871094 37.828125 C 41.257812 37.828125 41.625 37.984375 41.894531 38.253906 C 42.167969 38.527344 42.320312 38.894531 42.320312 39.277344 " fill-opacity="1" fill-rule="nonzero"/><g clip-path="url(#f5d556abd7)"><path fill="#07ab90" d="M 45.71875 39.691406 L 41.828125 39.691406 C 41.632812 39.691406 41.472656 39.851562 41.472656 40.046875 C 41.472656 40.246094 41.632812 40.40625 41.828125 40.40625 L 45.71875 40.40625 C 45.917969 40.40625 46.078125 40.246094 46.078125 40.046875 C 46.078125 39.851562 45.917969 39.691406 45.71875 39.691406 " fill-opacity="1" fill-rule="nonzero"/></g><path fill="#07af93" d="M 11.539062 8.066406 L 7.683594 8.066406 L 7.683594 13.746094 L 11.539062 10.460938 L 11.539062 8.066406 " fill-opacity="1" fill-rule="nonzero"/><g clip-path="url(#cb60d927aa)"><path fill="#07af93" d="M 46.210938 18.320312 L 24.734375 0.0078125 L 3.257812 18.320312 C 2.449219 19.011719 2.351562 20.226562 3.042969 21.035156 C 3.730469 21.84375 4.949219 21.941406 5.757812 21.25 L 7.683594 19.605469 L 7.683594 22.613281 L 6.1875 22.613281 L 6.1875 23.472656 L 13.207031 23.472656 L 13.207031 22.613281 L 11.539062 22.613281 L 11.539062 16.324219 L 24.734375 5.070312 L 43.710938 21.25 C 44.519531 21.941406 45.734375 21.84375 46.425781 21.035156 C 47.117188 20.226562 47.019531 19.011719 46.210938 18.320312 " fill-opacity="1" fill-rule="nonzero"/></g><path fill="#07ab90" d="M 24.253906 16.460938 L 24.253906 13.109375 L 20.902344 13.109375 L 20.902344 16.460938 L 24.253906 16.460938 " fill-opacity="1" fill-rule="nonzero"/><path fill="#07ab90" d="M 25.214844 16.460938 L 28.5625 16.460938 L 28.5625 13.109375 L 25.214844 13.109375 L 25.214844 16.460938 " fill-opacity="1" fill-rule="nonzero"/><path fill="#07ab90" d="M 25.214844 17.332031 L 25.214844 20.683594 L 28.5625 20.683594 L 28.5625 17.332031 L 25.214844 17.332031 " fill-opacity="1" fill-rule="nonzero"/><path fill="#07ab90" d="M 24.253906 17.332031 L 20.902344 17.332031 L 20.902344 20.683594 L 24.253906 20.683594 L 24.253906 17.332031 " fill-opacity="1" fill-rule="nonzero"/><g fill="#323b60" fill-opacity="1"><g transform="translate(54.829114, 32.845859)"><g><path d="M 9.109375 0.28125 C 7.429688 0.28125 5.992188 -0.078125 4.796875 -0.796875 C 3.597656 -1.515625 2.675781 -2.515625 2.03125 -3.796875 C 1.382812 -5.078125 1.0625 -6.5625 1.0625 -8.25 C 1.0625 -9.9375 1.382812 -11.425781 2.03125 -12.71875 C 2.675781 -14.007812 3.597656 -15.015625 4.796875 -15.734375 C 5.992188 -16.460938 7.429688 -16.828125 9.109375 -16.828125 C 11.085938 -16.828125 12.710938 -16.332031 13.984375 -15.34375 C 15.253906 -14.363281 16.046875 -12.984375 16.359375 -11.203125 L 13.03125 -11.203125 C 12.820312 -12.097656 12.378906 -12.800781 11.703125 -13.3125 C 11.035156 -13.832031 10.148438 -14.09375 9.046875 -14.09375 C 7.523438 -14.09375 6.328125 -13.570312 5.453125 -12.53125 C 4.585938 -11.488281 4.15625 -10.0625 4.15625 -8.25 C 4.15625 -6.4375 4.585938 -5.015625 5.453125 -3.984375 C 6.328125 -2.953125 7.523438 -2.4375 9.046875 -2.4375 C 10.148438 -2.4375 11.035156 -2.675781 11.703125 -3.15625 C 12.378906 -3.632812 12.820312 -4.300781 13.03125 -5.15625 L 16.359375 -5.15625 C 16.046875 -3.445312 15.253906 -2.113281 13.984375 -1.15625 C 12.710938 -0.195312 11.085938 0.28125 9.109375 0.28125 Z M 9.109375 0.28125 "/></g></g></g><g fill="#323b60" fill-opacity="1"><g transform="translate(72.04421, 32.845859)"><g><path d="M 7.15625 0.28125 C 6.03125 0.28125 5.015625 0.0195312 4.109375 -0.5 C 3.203125 -1.019531 2.484375 -1.738281 1.953125 -2.65625 C 1.421875 -3.582031 1.15625 -4.648438 1.15625 -5.859375 C 1.15625 -7.078125 1.421875 -8.144531 1.953125 -9.0625 C 2.492188 -9.988281 3.21875 -10.710938 4.125 -11.234375 C 5.03125 -11.753906 6.050781 -12.015625 7.1875 -12.015625 C 8.300781 -12.015625 9.3125 -11.753906 10.21875 -11.234375 C 11.125 -10.710938 11.84375 -9.988281 12.375 -9.0625 C 12.90625 -8.144531 13.171875 -7.078125 13.171875 -5.859375 C 13.171875 -4.648438 12.90625 -3.582031 12.375 -2.65625 C 11.84375 -1.738281 11.117188 -1.019531 10.203125 -0.5 C 9.296875 0.0195312 8.28125 0.28125 7.15625 0.28125 Z M 7.15625 -2.34375 C 7.945312 -2.34375 8.632812 -2.632812 9.21875 -3.21875 C 9.800781 -3.8125 10.09375 -4.691406 10.09375 -5.859375 C 10.09375 -7.023438 9.800781 -7.90625 9.21875 -8.5 C 8.632812 -9.09375 7.957031 -9.390625 7.1875 -9.390625 C 6.382812 -9.390625 5.691406 -9.09375 5.109375 -8.5 C 4.535156 -7.90625 4.25 -7.023438 4.25 -5.859375 C 4.25 -4.691406 4.535156 -3.8125 5.109375 -3.21875 C 5.691406 -2.632812 6.375 -2.34375 7.15625 -2.34375 Z M 7.15625 -2.34375 "/></g></g></g><g fill="#323b60" fill-opacity="1"><g transform="translate(86.16154, 32.845859)"><g><path d="M 1.53125 0 L 1.53125 -11.71875 L 4.203125 -11.71875 L 4.46875 -10.140625 C 4.84375 -10.710938 5.34375 -11.164062 5.96875 -11.5 C 6.59375 -11.84375 7.3125 -12.015625 8.125 -12.015625 C 9.9375 -12.015625 11.222656 -11.3125 11.984375 -9.90625 C 12.410156 -10.550781 12.984375 -11.0625 13.703125 -11.4375 C 14.421875 -11.820312 15.203125 -12.015625 16.046875 -12.015625 C 17.578125 -12.015625 18.75 -11.554688 19.5625 -10.640625 C 20.382812 -9.722656 20.796875 -8.382812 20.796875 -6.625 L 20.796875 0 L 17.78125 0 L 17.78125 -6.328125 C 17.78125 -7.335938 17.585938 -8.109375 17.203125 -8.640625 C 16.816406 -9.179688 16.21875 -9.453125 15.40625 -9.453125 C 14.59375 -9.453125 13.9375 -9.148438 13.4375 -8.546875 C 12.9375 -7.953125 12.6875 -7.117188 12.6875 -6.046875 L 12.6875 0 L 9.671875 0 L 9.671875 -6.328125 C 9.671875 -7.335938 9.472656 -8.109375 9.078125 -8.640625 C 8.679688 -9.179688 8.070312 -9.453125 7.25 -9.453125 C 6.445312 -9.453125 5.796875 -9.148438 5.296875 -8.546875 C 4.804688 -7.953125 4.5625 -7.117188 4.5625 -6.046875 L 4.5625 0 Z M 1.53125 0 "/></g></g></g><g fill="#323b60" fill-opacity="1"><g transform="translate(108.106053, 32.845859)"><g><path d="M 1.53125 5.203125 L 1.53125 -11.71875 L 4.234375 -11.71875 L 4.5625 -10.046875 C 4.9375 -10.566406 5.4375 -11.023438 6.0625 -11.421875 C 6.6875 -11.816406 7.492188 -12.015625 8.484375 -12.015625 C 9.585938 -12.015625 10.570312 -11.742188 11.4375 -11.203125 C 12.3125 -10.671875 13 -9.9375 13.5 -9 C 14 -8.070312 14.25 -7.019531 14.25 -5.84375 C 14.25 -4.65625 14 -3.597656 13.5 -2.671875 C 13 -1.753906 12.3125 -1.03125 11.4375 -0.5 C 10.570312 0.0195312 9.585938 0.28125 8.484375 0.28125 C 7.597656 0.28125 6.820312 0.117188 6.15625 -0.203125 C 5.5 -0.535156 4.96875 -1.003906 4.5625 -1.609375 L 4.5625 5.203125 Z M 7.84375 -2.359375 C 8.8125 -2.359375 9.609375 -2.679688 10.234375 -3.328125 C 10.867188 -3.972656 11.1875 -4.8125 11.1875 -5.84375 C 11.1875 -6.863281 10.867188 -7.703125 10.234375 -8.359375 C 9.609375 -9.023438 8.8125 -9.359375 7.84375 -9.359375 C 6.875 -9.359375 6.078125 -9.03125 5.453125 -8.375 C 4.828125 -7.726562 4.515625 -6.890625 4.515625 -5.859375 C 4.515625 -4.835938 4.828125 -4 5.453125 -3.34375 C 6.078125 -2.6875 6.875 -2.359375 7.84375 -2.359375 Z M 7.84375 -2.359375 "/></g></g></g><g fill="#323b60" fill-opacity="1"><g transform="translate(123.311148, 32.845859)"><g><path d="M 5.578125 0.28125 C 4.566406 0.28125 3.738281 0.117188 3.09375 -0.203125 C 2.445312 -0.523438 1.96875 -0.953125 1.65625 -1.484375 C 1.34375 -2.023438 1.1875 -2.617188 1.1875 -3.265625 C 1.1875 -4.347656 1.609375 -5.226562 2.453125 -5.90625 C 3.304688 -6.582031 4.582031 -6.921875 6.28125 -6.921875 L 9.265625 -6.921875 L 9.265625 -7.203125 C 9.265625 -8.015625 9.035156 -8.609375 8.578125 -8.984375 C 8.117188 -9.359375 7.550781 -9.546875 6.875 -9.546875 C 6.257812 -9.546875 5.722656 -9.398438 5.265625 -9.109375 C 4.816406 -8.816406 4.535156 -8.390625 4.421875 -7.828125 L 1.46875 -7.828125 C 1.539062 -8.679688 1.828125 -9.421875 2.328125 -10.046875 C 2.828125 -10.679688 3.46875 -11.164062 4.25 -11.5 C 5.039062 -11.84375 5.925781 -12.015625 6.90625 -12.015625 C 8.570312 -12.015625 9.882812 -11.59375 10.84375 -10.75 C 11.8125 -9.914062 12.296875 -8.734375 12.296875 -7.203125 L 12.296875 0 L 9.71875 0 L 9.4375 -1.890625 C 9.082031 -1.265625 8.59375 -0.742188 7.96875 -0.328125 C 7.351562 0.078125 6.554688 0.28125 5.578125 0.28125 Z M 6.265625 -2.078125 C 7.128906 -2.078125 7.800781 -2.359375 8.28125 -2.921875 C 8.757812 -3.492188 9.066406 -4.195312 9.203125 -5.03125 L 6.625 -5.03125 C 5.8125 -5.03125 5.234375 -4.882812 4.890625 -4.59375 C 4.546875 -4.300781 4.375 -3.941406 4.375 -3.515625 C 4.375 -3.066406 4.546875 -2.710938 4.890625 -2.453125 C 5.234375 -2.203125 5.691406 -2.078125 6.265625 -2.078125 Z M 6.265625 -2.078125 "/></g></g></g><g fill="#323b60" fill-opacity="1"><g transform="translate(136.742707, 32.845859)"><g><path d="M 1.53125 0 L 1.53125 -11.71875 L 4.234375 -11.71875 L 4.515625 -9.53125 C 4.941406 -10.28125 5.519531 -10.878906 6.25 -11.328125 C 6.988281 -11.785156 7.851562 -12.015625 8.84375 -12.015625 L 8.84375 -8.8125 L 7.984375 -8.8125 C 7.328125 -8.8125 6.738281 -8.707031 6.21875 -8.5 C 5.695312 -8.300781 5.289062 -7.945312 5 -7.4375 C 4.707031 -6.9375 4.5625 -6.238281 4.5625 -5.34375 L 4.5625 0 Z M 1.53125 0 "/></g></g></g><g fill="#323b60" fill-opacity="1"><g transform="translate(145.681323, 32.845859)"><g><path d="M 7.234375 0.28125 C 6.054688 0.28125 5.007812 0.03125 4.09375 -0.46875 C 3.175781 -0.976562 2.457031 -1.6875 1.9375 -2.59375 C 1.414062 -3.507812 1.15625 -4.566406 1.15625 -5.765625 C 1.15625 -6.984375 1.410156 -8.0625 1.921875 -9 C 2.429688 -9.945312 3.140625 -10.6875 4.046875 -11.21875 C 4.953125 -11.75 6.019531 -12.015625 7.25 -12.015625 C 8.40625 -12.015625 9.421875 -11.757812 10.296875 -11.25 C 11.179688 -10.75 11.875 -10.0625 12.375 -9.1875 C 12.875 -8.3125 13.125 -7.335938 13.125 -6.265625 C 13.125 -6.085938 13.117188 -5.90625 13.109375 -5.71875 C 13.097656 -5.53125 13.085938 -5.332031 13.078125 -5.125 L 4.15625 -5.125 C 4.21875 -4.21875 4.535156 -3.503906 5.109375 -2.984375 C 5.691406 -2.460938 6.390625 -2.203125 7.203125 -2.203125 C 7.816406 -2.203125 8.332031 -2.335938 8.75 -2.609375 C 9.175781 -2.890625 9.488281 -3.25 9.6875 -3.6875 L 12.765625 -3.6875 C 12.546875 -2.945312 12.175781 -2.269531 11.65625 -1.65625 C 11.144531 -1.050781 10.515625 -0.578125 9.765625 -0.234375 C 9.023438 0.109375 8.179688 0.28125 7.234375 0.28125 Z M 7.25 -9.546875 C 6.507812 -9.546875 5.851562 -9.335938 5.28125 -8.921875 C 4.71875 -8.503906 4.359375 -7.867188 4.203125 -7.015625 L 10.046875 -7.015625 C 9.992188 -7.785156 9.707031 -8.398438 9.1875 -8.859375 C 8.675781 -9.316406 8.03125 -9.546875 7.25 -9.546875 Z M 7.25 -9.546875 "/></g></g></g><g fill="#323b60" fill-opacity="1"><g transform="translate(159.609468, 32.845859)"><g/></g></g><g fill="#323b60" fill-opacity="1"><g transform="translate(165.024657, 32.845859)"><g><path d="M 4.96875 0 L 0.59375 -16.546875 L 3.828125 -16.546875 L 6.8125 -3.375 L 10.3125 -16.546875 L 13.640625 -16.546875 L 17.046875 -3.375 L 20.03125 -16.546875 L 23.28125 -16.546875 L 18.796875 0 L 15.203125 0 L 11.921875 -12.265625 L 8.53125 0 Z M 4.96875 0 "/></g></g></g><g fill="#323b60" fill-opacity="1"><g transform="translate(187.34753, 32.845859)"><g><path d="M 5.578125 0.28125 C 4.566406 0.28125 3.738281 0.117188 3.09375 -0.203125 C 2.445312 -0.523438 1.96875 -0.953125 1.65625 -1.484375 C 1.34375 -2.023438 1.1875 -2.617188 1.1875 -3.265625 C 1.1875 -4.347656 1.609375 -5.226562 2.453125 -5.90625 C 3.304688 -6.582031 4.582031 -6.921875 6.28125 -6.921875 L 9.265625 -6.921875 L 9.265625 -7.203125 C 9.265625 -8.015625 9.035156 -8.609375 8.578125 -8.984375 C 8.117188 -9.359375 7.550781 -9.546875 6.875 -9.546875 C 6.257812 -9.546875 5.722656 -9.398438 5.265625 -9.109375 C 4.816406 -8.816406 4.535156 -8.390625 4.421875 -7.828125 L 1.46875 -7.828125 C 1.539062 -8.679688 1.828125 -9.421875 2.328125 -10.046875 C 2.828125 -10.679688 3.46875 -11.164062 4.25 -11.5 C 5.039062 -11.84375 5.925781 -12.015625 6.90625 -12.015625 C 8.570312 -12.015625 9.882812 -11.59375 10.84375 -10.75 C 11.8125 -9.914062 12.296875 -8.734375 12.296875 -7.203125 L 12.296875 0 L 9.71875 0 L 9.4375 -1.890625 C 9.082031 -1.265625 8.59375 -0.742188 7.96875 -0.328125 C 7.351562 0.078125 6.554688 0.28125 5.578125 0.28125 Z M 6.265625 -2.078125 C 7.128906 -2.078125 7.800781 -2.359375 8.28125 -2.921875 C 8.757812 -3.492188 9.066406 -4.195312 9.203125 -5.03125 L 6.625 -5.03125 C 5.8125 -5.03125 5.234375 -4.882812 4.890625 -4.59375 C 4.546875 -4.300781 4.375 -3.941406 4.375 -3.515625 C 4.375 -3.066406 4.546875 -2.710938 4.890625 -2.453125 C 5.234375 -2.203125 5.691406 -2.078125 6.265625 -2.078125 Z M 6.265625 -2.078125 "/></g></g></g><g fill="#323b60" fill-opacity="1"><g transform="translate(200.61356, 32.845859)"><g><path d="M 6.765625 0 C 5.535156 0 4.546875 -0.296875 3.796875 -0.890625 C 3.054688 -1.492188 2.6875 -2.5625 2.6875 -4.09375 L 2.6875 -9.203125 L 0.6875 -9.203125 L 0.6875 -11.71875 L 2.6875 -11.71875 L 3.046875 -14.875 L 5.71875 -14.875 L 5.71875 -11.71875 L 8.890625 -11.71875 L 8.890625 -9.203125 L 5.71875 -9.203125 L 5.71875 -4.0625 C 5.71875 -3.5 5.835938 -3.109375 6.078125 -2.890625 C 6.328125 -2.679688 6.753906 -2.578125 7.359375 -2.578125 L 8.8125 -2.578125 L 8.8125 0 Z M 6.765625 0 "/></g></g></g><g fill="#323b60" fill-opacity="1"><g transform="translate(210.048763, 32.845859)"><g><path d="M 7.234375 0.28125 C 6.054688 0.28125 5.007812 0.03125 4.09375 -0.46875 C 3.175781 -0.976562 2.457031 -1.6875 1.9375 -2.59375 C 1.414062 -3.507812 1.15625 -4.566406 1.15625 -5.765625 C 1.15625 -6.984375 1.410156 -8.0625 1.921875 -9 C 2.429688 -9.945312 3.140625 -10.6875 4.046875 -11.21875 C 4.953125 -11.75 6.019531 -12.015625 7.25 -12.015625 C 8.40625 -12.015625 9.421875 -11.757812 10.296875 -11.25 C 11.179688 -10.75 11.875 -10.0625 12.375 -9.1875 C 12.875 -8.3125 13.125 -7.335938 13.125 -6.265625 C 13.125 -6.085938 13.117188 -5.90625 13.109375 -5.71875 C 13.097656 -5.53125 13.085938 -5.332031 13.078125 -5.125 L 4.15625 -5.125 C 4.21875 -4.21875 4.535156 -3.503906 5.109375 -2.984375 C 5.691406 -2.460938 6.390625 -2.203125 7.203125 -2.203125 C 7.816406 -2.203125 8.332031 -2.335938 8.75 -2.609375 C 9.175781 -2.890625 9.488281 -3.25 9.6875 -3.6875 L 12.765625 -3.6875 C 12.546875 -2.945312 12.175781 -2.269531 11.65625 -1.65625 C 11.144531 -1.050781 10.515625 -0.578125 9.765625 -0.234375 C 9.023438 0.109375 8.179688 0.28125 7.234375 0.28125 Z M 7.25 -9.546875 C 6.507812 -9.546875 5.851562 -9.335938 5.28125 -8.921875 C 4.71875 -8.503906 4.359375 -7.867188 4.203125 -7.015625 L 10.046875 -7.015625 C 9.992188 -7.785156 9.707031 -8.398438 9.1875 -8.859375 C 8.675781 -9.316406 8.03125 -9.546875 7.25 -9.546875 Z M 7.25 -9.546875 "/></g></g></g><g fill="#323b60" fill-opacity="1"><g transform="translate(223.976907, 32.845859)"><g><path d="M 1.53125 0 L 1.53125 -11.71875 L 4.234375 -11.71875 L 4.515625 -9.53125 C 4.941406 -10.28125 5.519531 -10.878906 6.25 -11.328125 C 6.988281 -11.785156 7.851562 -12.015625 8.84375 -12.015625 L 8.84375 -8.8125 L 7.984375 -8.8125 C 7.328125 -8.8125 6.738281 -8.707031 6.21875 -8.5 C 5.695312 -8.300781 5.289062 -7.945312 5 -7.4375 C 4.707031 -6.9375 4.5625 -6.238281 4.5625 -5.34375 L 4.5625 0 Z M 1.53125 0 "/></g></g></g><g fill="#323b60" fill-opacity="1"><g transform="translate(233.128343, 32.845859)"><g/></g></g><g fill="#323b60" fill-opacity="1"><g transform="translate(238.543533, 32.845859)"><g><path d="M 1.609375 0 L 1.609375 -16.546875 L 12.296875 -16.546875 L 12.296875 -14.109375 L 4.640625 -14.109375 L 4.640625 -9.484375 L 10.828125 -9.484375 L 10.828125 -7.09375 L 4.640625 -7.09375 L 4.640625 0 Z M 1.609375 0 "/></g></g></g><g fill="#323b60" fill-opacity="1"><g transform="translate(251.360278, 32.845859)"><g><path d="M 3.171875 -13.546875 C 2.617188 -13.546875 2.164062 -13.707031 1.8125 -14.03125 C 1.457031 -14.363281 1.28125 -14.785156 1.28125 -15.296875 C 1.28125 -15.796875 1.457031 -16.207031 1.8125 -16.53125 C 2.164062 -16.851562 2.617188 -17.015625 3.171875 -17.015625 C 3.722656 -17.015625 4.175781 -16.851562 4.53125 -16.53125 C 4.882812 -16.207031 5.0625 -15.796875 5.0625 -15.296875 C 5.0625 -14.785156 4.882812 -14.363281 4.53125 -14.03125 C 4.175781 -13.707031 3.722656 -13.546875 3.171875 -13.546875 Z M 1.65625 0 L 1.65625 -11.71875 L 4.6875 -11.71875 L 4.6875 0 Z M 1.65625 0 "/></g></g></g><g fill="#323b60" fill-opacity="1"><g transform="translate(257.461228, 32.845859)"><g><path d="M 1.53125 0 L 1.53125 -17.015625 L 4.5625 -17.015625 L 4.5625 0 Z M 1.53125 0 "/></g></g></g><g fill="#323b60" fill-opacity="1"><g transform="translate(263.373015, 32.845859)"><g><path d="M 6.765625 0 C 5.535156 0 4.546875 -0.296875 3.796875 -0.890625 C 3.054688 -1.492188 2.6875 -2.5625 2.6875 -4.09375 L 2.6875 -9.203125 L 0.6875 -9.203125 L 0.6875 -11.71875 L 2.6875 -11.71875 L 3.046875 -14.875 L 5.71875 -14.875 L 5.71875 -11.71875 L 8.890625 -11.71875 L 8.890625 -9.203125 L 5.71875 -9.203125 L 5.71875 -4.0625 C 5.71875 -3.5 5.835938 -3.109375 6.078125 -2.890625 C 6.328125 -2.679688 6.753906 -2.578125 7.359375 -2.578125 L 8.8125 -2.578125 L 8.8125 0 Z M 6.765625 0 "/></g></g></g><g fill="#323b60" fill-opacity="1"><g transform="translate(272.808195, 32.845859)"><g><path d="M 7.234375 0.28125 C 6.054688 0.28125 5.007812 0.03125 4.09375 -0.46875 C 3.175781 -0.976562 2.457031 -1.6875 1.9375 -2.59375 C 1.414062 -3.507812 1.15625 -4.566406 1.15625 -5.765625 C 1.15625 -6.984375 1.410156 -8.0625 1.921875 -9 C 2.429688 -9.945312 3.140625 -10.6875 4.046875 -11.21875 C 4.953125 -11.75 6.019531 -12.015625 7.25 -12.015625 C 8.40625 -12.015625 9.421875 -11.757812 10.296875 -11.25 C 11.179688 -10.75 11.875 -10.0625 12.375 -9.1875 C 12.875 -8.3125 13.125 -7.335938 13.125 -6.265625 C 13.125 -6.085938 13.117188 -5.90625 13.109375 -5.71875 C 13.097656 -5.53125 13.085938 -5.332031 13.078125 -5.125 L 4.15625 -5.125 C 4.21875 -4.21875 4.535156 -3.503906 5.109375 -2.984375 C 5.691406 -2.460938 6.390625 -2.203125 7.203125 -2.203125 C 7.816406 -2.203125 8.332031 -2.335938 8.75 -2.609375 C 9.175781 -2.890625 9.488281 -3.25 9.6875 -3.6875 L 12.765625 -3.6875 C 12.546875 -2.945312 12.175781 -2.269531 11.65625 -1.65625 C 11.144531 -1.050781 10.515625 -0.578125 9.765625 -0.234375 C 9.023438 0.109375 8.179688 0.28125 7.234375 0.28125 Z M 7.25 -9.546875 C 6.507812 -9.546875 5.851562 -9.335938 5.28125 -8.921875 C 4.71875 -8.503906 4.359375 -7.867188 4.203125 -7.015625 L 10.046875 -7.015625 C 9.992188 -7.785156 9.707031 -8.398438 9.1875 -8.859375 C 8.675781 -9.316406 8.03125 -9.546875 7.25 -9.546875 Z M 7.25 -9.546875 "/></g></g></g><g fill="#323b60" fill-opacity="1"><g transform="translate(286.73635, 32.845859)"><g><path d="M 1.53125 0 L 1.53125 -11.71875 L 4.234375 -11.71875 L 4.515625 -9.53125 C 4.941406 -10.28125 5.519531 -10.878906 6.25 -11.328125 C 6.988281 -11.785156 7.851562 -12.015625 8.84375 -12.015625 L 8.84375 -8.8125 L 7.984375 -8.8125 C 7.328125 -8.8125 6.738281 -8.707031 6.21875 -8.5 C 5.695312 -8.300781 5.289062 -7.945312 5 -7.4375 C 4.707031 -6.9375 4.5625 -6.238281 4.5625 -5.34375 L 4.5625 0 Z M 1.53125 0 "/></g></g></g><g fill="#323b60" fill-opacity="1"><g transform="translate(295.887786, 32.845859)"><g><path d="M 6.390625 0.28125 C 5.347656 0.28125 4.429688 0.113281 3.640625 -0.21875 C 2.847656 -0.5625 2.21875 -1.03125 1.75 -1.625 C 1.28125 -2.226562 0.992188 -2.925781 0.890625 -3.71875 L 3.953125 -3.71875 C 4.046875 -3.257812 4.300781 -2.867188 4.71875 -2.546875 C 5.132812 -2.222656 5.671875 -2.0625 6.328125 -2.0625 C 6.992188 -2.0625 7.476562 -2.191406 7.78125 -2.453125 C 8.09375 -2.722656 8.25 -3.03125 8.25 -3.375 C 8.25 -3.882812 8.023438 -4.226562 7.578125 -4.40625 C 7.140625 -4.59375 6.53125 -4.769531 5.75 -4.9375 C 5.238281 -5.050781 4.722656 -5.1875 4.203125 -5.34375 C 3.679688 -5.5 3.203125 -5.695312 2.765625 -5.9375 C 2.335938 -6.1875 1.988281 -6.503906 1.71875 -6.890625 C 1.457031 -7.273438 1.328125 -7.753906 1.328125 -8.328125 C 1.328125 -9.359375 1.738281 -10.226562 2.5625 -10.9375 C 3.394531 -11.65625 4.554688 -12.015625 6.046875 -12.015625 C 7.429688 -12.015625 8.535156 -11.691406 9.359375 -11.046875 C 10.191406 -10.398438 10.6875 -9.507812 10.84375 -8.375 L 7.984375 -8.375 C 7.816406 -9.238281 7.164062 -9.671875 6.03125 -9.671875 C 5.457031 -9.671875 5.015625 -9.554688 4.703125 -9.328125 C 4.398438 -9.109375 4.25 -8.835938 4.25 -8.515625 C 4.25 -8.160156 4.476562 -7.878906 4.9375 -7.671875 C 5.394531 -7.472656 6.003906 -7.285156 6.765625 -7.109375 C 7.578125 -6.921875 8.328125 -6.710938 9.015625 -6.484375 C 9.703125 -6.253906 10.25 -5.914062 10.65625 -5.46875 C 11.070312 -5.019531 11.28125 -4.378906 11.28125 -3.546875 C 11.289062 -2.816406 11.097656 -2.160156 10.703125 -1.578125 C 10.316406 -0.992188 9.75 -0.535156 9 -0.203125 C 8.257812 0.117188 7.390625 0.28125 6.390625 0.28125 Z M 6.390625 0.28125 "/></g></g></g></svg>